<mxfile host="Electron" modified="2024-02-26T18:20:57.160Z" agent="Mozilla/5.0 (Macintosh; Intel Mac OS X 10_15_7) AppleWebKit/537.36 (KHTML, like Gecko) draw.io/23.0.2 Chrome/120.0.6099.109 Electron/28.1.0 Safari/537.36" etag="P3uGVYpWf75OMDO4UE5I" version="23.0.2" type="device">
  <diagram name="Page-1" id="Zi9gFL6Ko8hxbF-fD-5C">
    <mxGraphModel dx="1194" dy="597" grid="1" gridSize="10" guides="1" tooltips="1" connect="1" arrows="1" fold="1" page="1" pageScale="1" pageWidth="827" pageHeight="1169" math="0" shadow="0">
      <root>
        <mxCell id="0" />
        <mxCell id="1" parent="0" />
        <mxCell id="irI4c0Z1KMfC-WkiTSPV-16" value="" style="shape=parallelogram;perimeter=parallelogramPerimeter;whiteSpace=wrap;html=1;fixedSize=1;" vertex="1" parent="1">
          <mxGeometry x="530" y="60" width="120" height="30" as="geometry" />
        </mxCell>
        <mxCell id="irI4c0Z1KMfC-WkiTSPV-6" style="edgeStyle=orthogonalEdgeStyle;rounded=0;orthogonalLoop=1;jettySize=auto;html=1;exitX=0.5;exitY=1;exitDx=0;exitDy=0;entryX=0.5;entryY=0;entryDx=0;entryDy=0;" edge="1" parent="1" source="irI4c0Z1KMfC-WkiTSPV-1" target="irI4c0Z1KMfC-WkiTSPV-2">
          <mxGeometry relative="1" as="geometry" />
        </mxCell>
        <mxCell id="irI4c0Z1KMfC-WkiTSPV-1" value="Проводится онлайн-урок" style="rounded=1;whiteSpace=wrap;html=1;" vertex="1" parent="1">
          <mxGeometry x="70" y="10" width="120" height="60" as="geometry" />
        </mxCell>
        <mxCell id="irI4c0Z1KMfC-WkiTSPV-7" style="edgeStyle=orthogonalEdgeStyle;rounded=0;orthogonalLoop=1;jettySize=auto;html=1;exitX=0.5;exitY=1;exitDx=0;exitDy=0;entryX=0.5;entryY=0;entryDx=0;entryDy=0;" edge="1" parent="1" source="irI4c0Z1KMfC-WkiTSPV-2" target="irI4c0Z1KMfC-WkiTSPV-3">
          <mxGeometry relative="1" as="geometry" />
        </mxCell>
        <mxCell id="irI4c0Z1KMfC-WkiTSPV-2" value="Видеозапись урока сохраняется и автоматически попадает на сервер EdControl" style="rounded=1;whiteSpace=wrap;html=1;" vertex="1" parent="1">
          <mxGeometry x="70" y="110" width="120" height="90" as="geometry" />
        </mxCell>
        <mxCell id="irI4c0Z1KMfC-WkiTSPV-9" style="edgeStyle=orthogonalEdgeStyle;rounded=0;orthogonalLoop=1;jettySize=auto;html=1;exitX=1;exitY=0.75;exitDx=0;exitDy=0;entryX=0;entryY=0.5;entryDx=0;entryDy=0;" edge="1" parent="1" source="irI4c0Z1KMfC-WkiTSPV-3" target="irI4c0Z1KMfC-WkiTSPV-5">
          <mxGeometry relative="1" as="geometry" />
        </mxCell>
        <mxCell id="irI4c0Z1KMfC-WkiTSPV-3" value="В LMS системе компании появляется полная аналитика по этому уроку" style="rounded=1;whiteSpace=wrap;html=1;" vertex="1" parent="1">
          <mxGeometry x="70" y="250" width="120" height="90" as="geometry" />
        </mxCell>
        <mxCell id="irI4c0Z1KMfC-WkiTSPV-11" style="edgeStyle=orthogonalEdgeStyle;rounded=0;orthogonalLoop=1;jettySize=auto;html=1;exitX=1;exitY=0.5;exitDx=0;exitDy=0;entryX=0;entryY=0.5;entryDx=0;entryDy=0;" edge="1" parent="1" source="irI4c0Z1KMfC-WkiTSPV-4" target="irI4c0Z1KMfC-WkiTSPV-10">
          <mxGeometry relative="1" as="geometry" />
        </mxCell>
        <mxCell id="irI4c0Z1KMfC-WkiTSPV-4" value="Возможность изучить видеоаналитику эмоциональной составляющей видеоурока" style="rounded=1;whiteSpace=wrap;html=1;" vertex="1" parent="1">
          <mxGeometry x="250" y="130" width="120" height="110" as="geometry" />
        </mxCell>
        <mxCell id="irI4c0Z1KMfC-WkiTSPV-12" style="edgeStyle=orthogonalEdgeStyle;rounded=0;orthogonalLoop=1;jettySize=auto;html=1;exitX=1;exitY=0.5;exitDx=0;exitDy=0;entryX=0;entryY=0.5;entryDx=0;entryDy=0;" edge="1" parent="1" source="irI4c0Z1KMfC-WkiTSPV-5" target="irI4c0Z1KMfC-WkiTSPV-10">
          <mxGeometry relative="1" as="geometry" />
        </mxCell>
        <mxCell id="irI4c0Z1KMfC-WkiTSPV-5" value="Возможность изучить о чем велся диалог на уроке в текстовом формате полностью или только суммаризацию" style="rounded=1;whiteSpace=wrap;html=1;" vertex="1" parent="1">
          <mxGeometry x="255" y="330" width="150" height="110" as="geometry" />
        </mxCell>
        <mxCell id="irI4c0Z1KMfC-WkiTSPV-8" style="edgeStyle=orthogonalEdgeStyle;rounded=0;orthogonalLoop=1;jettySize=auto;html=1;exitX=1;exitY=0.5;exitDx=0;exitDy=0;entryX=-0.008;entryY=0.445;entryDx=0;entryDy=0;entryPerimeter=0;" edge="1" parent="1" source="irI4c0Z1KMfC-WkiTSPV-3" target="irI4c0Z1KMfC-WkiTSPV-4">
          <mxGeometry relative="1" as="geometry" />
        </mxCell>
        <mxCell id="irI4c0Z1KMfC-WkiTSPV-10" value="На экране появляются кнопки &quot;&lt;i&gt;согласиться с аналитикой&lt;/i&gt;&quot; и &quot;&lt;i&gt;внести правки&lt;/i&gt;&quot;" style="rounded=1;whiteSpace=wrap;html=1;" vertex="1" parent="1">
          <mxGeometry x="450" y="170" width="120" height="110" as="geometry" />
        </mxCell>
        <mxCell id="irI4c0Z1KMfC-WkiTSPV-13" value="Аналитика подтверждается, преподавателю отправляется обратная связь с результатами анализа его урока" style="rounded=1;whiteSpace=wrap;html=1;" vertex="1" parent="1">
          <mxGeometry x="680" y="40" width="120" height="110" as="geometry" />
        </mxCell>
        <mxCell id="irI4c0Z1KMfC-WkiTSPV-14" style="edgeStyle=orthogonalEdgeStyle;rounded=0;orthogonalLoop=1;jettySize=auto;html=1;exitX=1;exitY=0.5;exitDx=0;exitDy=0;entryX=-0.05;entryY=0.491;entryDx=0;entryDy=0;entryPerimeter=0;" edge="1" parent="1" source="irI4c0Z1KMfC-WkiTSPV-10" target="irI4c0Z1KMfC-WkiTSPV-13">
          <mxGeometry relative="1" as="geometry">
            <Array as="points">
              <mxPoint x="600" y="225" />
              <mxPoint x="600" y="94" />
            </Array>
          </mxGeometry>
        </mxCell>
        <mxCell id="irI4c0Z1KMfC-WkiTSPV-15" value="Согласен с аналитикой" style="text;html=1;strokeColor=none;fillColor=none;align=center;verticalAlign=middle;whiteSpace=wrap;rounded=0;" vertex="1" parent="1">
          <mxGeometry x="540" y="60" width="100" height="30" as="geometry" />
        </mxCell>
        <mxCell id="irI4c0Z1KMfC-WkiTSPV-23" style="edgeStyle=orthogonalEdgeStyle;rounded=0;orthogonalLoop=1;jettySize=auto;html=1;exitX=0.5;exitY=1;exitDx=0;exitDy=0;entryX=0.5;entryY=0;entryDx=0;entryDy=0;" edge="1" parent="1" source="irI4c0Z1KMfC-WkiTSPV-17" target="irI4c0Z1KMfC-WkiTSPV-22">
          <mxGeometry relative="1" as="geometry" />
        </mxCell>
        <mxCell id="irI4c0Z1KMfC-WkiTSPV-17" value="Предлагается внести правки в сформированный отчет по результатам анализа преподавателя" style="rounded=1;whiteSpace=wrap;html=1;" vertex="1" parent="1">
          <mxGeometry x="650" y="300" width="150" height="110" as="geometry" />
        </mxCell>
        <mxCell id="irI4c0Z1KMfC-WkiTSPV-19" value="" style="shape=parallelogram;perimeter=parallelogramPerimeter;whiteSpace=wrap;html=1;fixedSize=1;" vertex="1" parent="1">
          <mxGeometry x="620" y="210" width="120" height="30" as="geometry" />
        </mxCell>
        <mxCell id="irI4c0Z1KMfC-WkiTSPV-20" style="edgeStyle=orthogonalEdgeStyle;rounded=0;orthogonalLoop=1;jettySize=auto;html=1;exitX=1;exitY=0.75;exitDx=0;exitDy=0;entryX=0.5;entryY=0;entryDx=0;entryDy=0;" edge="1" parent="1" source="irI4c0Z1KMfC-WkiTSPV-10" target="irI4c0Z1KMfC-WkiTSPV-17">
          <mxGeometry relative="1" as="geometry">
            <mxPoint x="580" y="263" as="sourcePoint" />
            <mxPoint x="735" y="370" as="targetPoint" />
          </mxGeometry>
        </mxCell>
        <mxCell id="irI4c0Z1KMfC-WkiTSPV-21" value="Внести правки" style="text;html=1;strokeColor=none;fillColor=none;align=center;verticalAlign=middle;whiteSpace=wrap;rounded=0;" vertex="1" parent="1">
          <mxGeometry x="630" y="210" width="100" height="30" as="geometry" />
        </mxCell>
        <mxCell id="irI4c0Z1KMfC-WkiTSPV-22" value="Аналитика подтверждается, преподавателю отправляется обратная связь с результатами анализа его урока" style="rounded=1;whiteSpace=wrap;html=1;" vertex="1" parent="1">
          <mxGeometry x="665" y="474.5" width="120" height="110" as="geometry" />
        </mxCell>
      </root>
    </mxGraphModel>
  </diagram>
</mxfile>
